<?xml version="1.0" standalone="no"?>
<!DOCTYPE svg PUBLIC "-//W3C//DTD SVG 20010904//EN"
 "http://www.w3.org/TR/2001/REC-SVG-20010904/DTD/svg10.dtd">
<svg version="1.0" xmlns="http://www.w3.org/2000/svg"
 width="1600.000000pt" height="1600.000000pt" viewBox="0 0 1600.000000 1600.000000"
 preserveAspectRatio="xMidYMid meet">
<metadata>
Created by potrace 1.11, written by Peter Selinger 2001-2013
</metadata>
<g transform="translate(0.000000,1600.000000) scale(0.100000,-0.100000)"
fill="#000000" stroke="none">
<path d="M7807 13980 c-188 -39 -327 -110 -494 -254 -32 -27 -133 -150 -160
-196 -108 -178 -154 -353 -148 -560 6 -236 75 -419 228 -609 56 -69 168 -167
237 -208 l31 -18 -3 -85 c-2 -48 -7 -85 -13 -86 -17 0 -128 -16 -150 -20 -11
-3 -38 -7 -60 -10 -205 -30 -584 -144 -855 -258 -67 -29 -307 -148 -370 -183
-302 -172 -561 -363 -795 -585 -38 -36 -73 -68 -77 -70 -4 -1 -38 21 -75 50
-38 28 -189 146 -337 262 l-270 209 -2 143 c-1 79 -4 154 -8 168 -3 14 -8 39
-12 55 -16 82 -69 209 -127 305 -71 118 -209 253 -332 326 -106 63 -250 115
-360 132 -63 9 -245 9 -306 0 -254 -37 -502 -188 -651 -395 -139 -192 -200
-388 -194 -617 5 -188 48 -339 140 -491 17 -27 36 -56 43 -63 7 -7 13 -17 13
-21 0 -11 151 -164 195 -196 104 -79 273 -158 380 -179 17 -4 41 -9 55 -12 58
-12 268 -11 340 3 88 16 80 14 152 37 l56 18 173 -133 c278 -216 414 -322 453
-354 21 -16 42 -33 48 -36 7 -4 -2 -28 -25 -65 -103 -172 -224 -438 -304 -669
-38 -108 -89 -275 -97 -315 -2 -14 -14 -63 -25 -110 -19 -78 -45 -216 -57
-300 -2 -19 -6 -44 -9 -55 -2 -11 -6 -49 -10 -85 -3 -36 -8 -83 -11 -105 -2
-22 -6 -136 -9 -254 -3 -118 -6 -216 -8 -217 -2 -2 -31 9 -65 26 -77 37 -167
66 -258 84 -96 18 -298 14 -394 -9 -117 -26 -308 -113 -358 -162 -7 -7 -17
-13 -22 -13 -14 0 -175 -163 -207 -210 -138 -203 -192 -375 -188 -606 6 -322
138 -583 395 -781 93 -72 250 -151 332 -167 13 -3 48 -10 78 -17 81 -17 264
-19 355 -3 238 40 471 176 606 350 23 30 44 54 48 54 3 0 12 -15 20 -32 27
-64 149 -306 197 -389 59 -104 247 -384 282 -422 l26 -27 -292 -291 -291 -292
-63 13 c-35 7 -113 14 -173 16 -282 7 -535 -94 -730 -292 -81 -82 -78 -79
-133 -162 -206 -310 -213 -732 -18 -1057 34 -57 131 -178 173 -215 30 -28 135
-107 168 -127 61 -37 198 -96 255 -108 8 -2 38 -9 65 -15 74 -18 278 -20 368
-4 204 36 393 136 537 285 79 82 79 82 133 166 78 122 127 252 145 383 11 77
7 272 -7 343 l-13 68 289 289 289 290 69 -51 c327 -242 739 -458 1080 -569 39
-12 72 -24 74 -26 2 -1 -18 -30 -44 -64 -100 -130 -167 -268 -200 -410 -19
-81 -28 -309 -14 -369 4 -20 10 -50 13 -68 8 -45 63 -198 87 -241 33 -59 62
-107 69 -112 4 -3 11 -12 16 -22 34 -62 196 -211 285 -262 160 -92 315 -137
495 -142 348 -9 666 156 856 446 112 171 162 338 163 540 0 191 -25 301 -107
464 -16 32 -28 60 -26 61 2 2 32 6 68 9 36 4 76 8 90 11 14 2 43 6 65 9 225
26 573 118 888 236 32 12 60 20 61 18 1 -1 130 -194 285 -427 l282 -424 -30
-81 c-34 -93 -50 -149 -59 -215 -9 -61 -8 -232 1 -301 46 -354 319 -680 668
-796 115 -38 210 -52 344 -49 477 8 876 353 962 830 9 51 10 256 1 316 -45
312 -251 594 -543 743 -128 65 -252 96 -405 102 -57 2 -107 8 -111 12 -3 4
-124 183 -267 399 l-261 392 72 57 c133 106 211 177 357 324 204 203 328 353
476 570 80 117 184 288 184 301 0 5 3 9 6 9 8 0 130 -48 181 -71 24 -10 49
-19 56 -19 7 0 17 -4 22 -8 6 -4 37 -18 70 -31 33 -13 74 -29 90 -36 17 -6 44
-18 62 -24 27 -11 33 -20 43 -64 54 -258 200 -479 417 -634 44 -31 178 -98
238 -118 203 -68 442 -70 638 -4 320 107 573 378 656 704 32 127 35 333 7 460
-53 234 -183 435 -388 594 -14 12 -29 21 -32 21 -3 0 -24 13 -48 28 -81 53
-204 100 -333 127 -16 4 -80 8 -142 11 -215 7 -411 -47 -581 -163 -35 -24 -67
-43 -72 -43 -4 0 -113 42 -242 93 -128 52 -241 96 -250 100 -15 5 -15 11 -2
69 22 95 65 308 69 348 2 19 6 49 9 65 2 17 7 57 11 90 4 32 8 63 11 67 2 3
37 28 77 54 214 141 371 382 420 648 15 76 16 268 4 342 -49 283 -224 540
-469 688 -92 55 -241 116 -283 116 -8 0 -20 12 -26 28 -55 145 -189 411 -292
580 l-50 82 184 186 c202 203 182 191 279 168 61 -14 249 -14 332 1 425 73
741 386 823 816 12 67 13 283 1 339 -39 179 -81 277 -173 408 -153 216 -391
365 -656 410 -23 4 -100 7 -172 6 -262 -1 -471 -86 -683 -279 -60 -54 -129
-148 -191 -260 -34 -60 -78 -188 -96 -280 -14 -68 -13 -262 2 -348 l15 -89
-156 -156 c-135 -136 -157 -154 -168 -140 -15 18 -144 129 -208 178 -25 19
-47 38 -50 41 -28 33 -333 237 -470 314 -306 173 -724 342 -990 400 -8 2 -53
13 -100 24 -80 19 -217 45 -303 58 -21 3 -46 6 -55 8 -9 2 -20 4 -24 4 -5 1
-8 38 -8 84 l0 82 48 30 c174 110 332 315 401 522 81 242 57 548 -61 771 -139
263 -381 450 -668 517 -108 25 -301 27 -413 5z m490 -2993 c12 -3 49 -8 82
-12 33 -3 70 -8 83 -10 13 -3 50 -10 83 -16 244 -43 521 -133 753 -245 420
-204 766 -482 1067 -859 158 -197 331 -501 428 -750 64 -166 142 -442 161
-570 3 -22 7 -49 10 -60 2 -11 7 -49 11 -85 4 -36 10 -76 12 -90 2 -14 5 -124
7 -245 3 -203 0 -276 -19 -425 -4 -30 -9 -68 -11 -85 -2 -16 -11 -64 -19 -105
-8 -41 -17 -85 -20 -97 -18 -98 -127 -437 -146 -458 -5 -5 -9 -15 -9 -22 0
-19 -111 -246 -171 -349 -74 -129 -213 -331 -274 -400 -5 -6 -35 -40 -65 -75
-100 -116 -312 -319 -385 -369 -12 -8 -41 -31 -66 -51 -161 -132 -482 -313
-714 -402 -234 -90 -511 -160 -720 -182 -33 -4 -71 -9 -85 -12 -44 -8 -462
-11 -540 -3 -110 12 -182 20 -210 26 -43 8 -64 11 -110 19 -142 23 -461 119
-595 179 -110 50 -253 121 -329 165 -658 381 -1147 991 -1370 1711 -36 117
-79 292 -90 365 -3 22 -8 55 -11 73 -3 17 -7 47 -10 65 -20 130 -27 504 -12
662 7 75 23 187 46 318 23 132 137 504 162 532 5 5 9 15 9 22 0 38 175 367
268 506 85 126 97 142 137 193 410 514 959 880 1565 1045 25 7 50 14 55 15 50
14 254 55 299 60 23 3 51 7 64 10 12 2 62 7 110 10 48 3 88 7 91 9 5 6 452 -2
478 -8z"/>
<path d="M6880 9483 c-210 -54 -361 -234 -377 -452 -16 -221 126 -429 343
-506 66 -23 204 -27 274 -9 211 56 361 236 377 453 10 139 -40 272 -142 376
-70 72 -133 109 -230 136 -80 22 -164 23 -245 2z"/>
<path d="M9305 8479 c-481 -98 -816 -519 -800 -1003 2 -67 6 -130 8 -141 3
-11 10 -42 17 -70 76 -342 368 -641 710 -729 99 -26 143 -31 275 -30 102 0
149 5 220 24 290 75 520 255 654 515 38 72 88 224 98 297 10 67 10 236 1 308
-16 118 -68 260 -141 380 -108 179 -319 347 -522 415 -154 53 -364 66 -520 34z"/>
<path d="M7380 6984 c-166 -45 -297 -167 -354 -329 -23 -65 -29 -204 -10 -272
62 -235 277 -394 512 -379 130 8 231 54 322 146 262 261 161 698 -190 820 -83
29 -205 35 -280 14z"/>
</g>
</svg>
