<svg xmlns="http://www.w3.org/2000/svg" width="512" height="512" viewBox="0 0 512 512">
  <defs>
    <style>
      .cls-1 {
        fill: #0f0f0f;
        fill-rule: evenodd;
      }
    </style>
  </defs>
  <g id="favicon">
    <path id="a" class="cls-1" d="M730.35,412.13q-7.182,4.518-19.893,4.512-26.667,0-33.633-29.121-3.288-13.94-3.281-52.5V183.263q0-29.118-3.288-41.426-6.575-24.195-33.274-39.375-18.5-10.247-46.014-16.816a228.659,228.659,0,0,0-53-6.562A236.006,236.006,0,0,0,491.754,83.8q-23.63,4.72-39.644,12.1-29.589,14.361-29.583,35.273,0,13.949,9.434,23.174t23.379,9.229q21.321,0,29.531-19.278l10.254-23.789A52.712,52.712,0,0,1,514.812,96.72a53.33,53.33,0,0,1,29.942-8.613,61.791,61.791,0,0,1,26.865,6.152,59.144,59.144,0,0,1,21.123,16.407q18.043,22.148,18.047,70.136,0,22.561-4.922,35.274T587.82,238.224q-11.487,8.613-28.506,14.766t-52.7,15.176q-30.357,7.8-46.347,15.38a96.968,96.968,0,0,0-28.3,20.3q-21.745,22.976-21.738,57.012,0,36.914,26.493,58.652T508.4,441.251q35.319,0,62.024-14.765,13.957-7.786,41.49-32.4Q625.465,417.462,638.2,426.9q19.3,14.352,48.469,14.355,52.91,0,67.676-43.066l-6.973-4.1Q737.528,407.619,730.35,412.13ZM611.609,300.978q0,52.094-12.676,79.57a77.217,77.217,0,0,1-26.782,33.428q-17.784,12.516-37.818,12.51-22.9,0-37.824-17.637T481.59,364.142q0-31.578,19.219-55.371a109.157,109.157,0,0,1,20.848-19.688q11.449-8.2,41.3-24.2a274.111,274.111,0,0,0,48.654-32.4v68.5Z" transform="translate(-305)"/>
  </g>
</svg>
