<?xml version="1.0" standalone="no"?>
<!DOCTYPE svg PUBLIC "-//W3C//DTD SVG 20010904//EN"
 "http://www.w3.org/TR/2001/REC-SVG-20010904/DTD/svg10.dtd">
<svg version="1.0" xmlns="http://www.w3.org/2000/svg"
 width="700.000000pt" height="700.000000pt" viewBox="0 0 700.000000 700.000000"
 preserveAspectRatio="xMidYMid meet">
<metadata>
Created by potrace 1.14, written by Peter Selinger 2001-2017
</metadata>
<g transform="translate(0.000000,700.000000) scale(0.100000,-0.100000)"
fill="#000000" stroke="none">
<path d="M705 6875 c-144 -26 -272 -94 -379 -201 -109 -109 -175 -235 -202
-383 -11 -63 -13 -553 -14 -2761 0 -1819 4 -2706 11 -2749 25 -160 92 -286
213 -406 94 -93 200 -154 322 -185 76 -20 125 -20 2810 -20 3017 0 2801 -5
2947 63 197 92 344 270 397 481 20 78 20 116 20 2816 0 2689 0 2738 -20 2814
-32 126 -91 228 -190 326 -123 123 -239 183 -400 209 -103 17 -5423 13 -5515
-4z m1545 -1220 l0 -895 -897 2 -898 3 0 740 0 740 23 58 c46 112 166 213 282
236 25 5 370 9 768 10 l722 1 0 -895z m2130 523 c0 -205 -3 -606 -7 -890 l-6
-518 -889 0 -888 0 0 890 0 890 895 0 895 0 0 -372z m1790 361 c126 -20 233
-101 289 -219 l26 -55 3 -752 2 -753 -884 0 c-487 0 -887 3 -890 8 -2 4 -2
407 1 895 l6 887 691 0 c434 0 715 -4 756 -11z m-1805 -2121 c1 -2 0 -401 -3
-886 l-5 -884 -883 4 c-485 1 -884 5 -887 8 -2 3 -2 403 1 889 l5 884 884 -6
c487 -3 886 -7 888 -9z m-2118 -540 c-4 -298 -7 -698 -7 -890 l0 -348 -892 2
-893 3 -3 888 -2 887 902 0 901 0 -6 -542z m2462 -1232 c-9 -8 -10 87 -5 374
3 212 7 615 8 895 2 312 4 167 5 -374 2 -650 0 -888 -8 -895z m8 -1688 c-1
-249 -2 -48 -2 447 0 495 1 699 2 453 2 -245 2 -650 0 -900z"/>
</g>
</svg>
