<?xml version="1.0" encoding="UTF-8"?>
<!-- Generated by Pixelmator Pro 3.7 -->
<svg width="410" height="359" viewBox="0 0 410 359" xmlns="http://www.w3.org/2000/svg">
    <path id="Shape" fill="#ffffff" fill-rule="evenodd" stroke="none" d="M 103 359 L 103 256 L 51 256 L 51 205 L 0 205 L 0 154 L 51 154 L 51 52 L 103 52 L 103 0 C 103 0 155.661362 0 205 0 C 254.338654 0 307 0 307 0 C 307 0 307 52 307 52 L 359 52 L 359 154 L 410 154 L 410 205 L 359 205 L 359 256 L 307 256 L 307 359 L 256 359 L 256 256 L 154 256 L 154 359 Z M 256 205 L 256 154 L 307 154 L 307 103 L 256 103 L 256 154 L 154 154 L 154 103 L 128.5 103 L 103 103 L 103 154 L 154 154 L 154 205 Z"/>
</svg>
