<?xml version="1.0" encoding="utf-8"?><!-- Uploaded to: SVG Repo, www.svgrepo.com, Generator: SVG Repo Mixer Tools -->
<svg fill="#000000" width="800px" height="800px" viewBox="0 0 24 24" xmlns="http://www.w3.org/2000/svg">
  <path d="M19,2 C20.5976809,2 21.9036609,3.24891996 21.9949073,4.82372721 L22,5 L22,15 C22,16.5976809 20.75108,17.9036609 19.1762728,17.9949073 L19,18 L15,18 L15,16 L19,16 C19.5128358,16 19.9355072,15.6139598 19.9932723,15.1166211 L20,15 L20,6 L4,6 L4,15 C4,15.5128358 4.38604019,15.9355072 4.88337887,15.9932723 L5,16 L9,16 L9,18 L5,18 C3.40231912,18 2.09633912,16.75108 2.00509269,15.1762728 L2,15 L2,5 C2,3.40231912 3.24891996,2.09633912 4.82372721,2.00509269 L5,2 L19,2 Z M12.082,8.003 L12.079,8.002 L12.2335141,8.02742266 L12.2335141,8.02742266 L12.3416665,8.05989459 L12.3416665,8.05989459 L12.4232215,8.09367336 L12.5207088,8.14599545 L12.5207088,8.14599545 L12.5951593,8.19631351 L12.5951593,8.19631351 L12.7071068,8.29289322 L16.7071068,12.2928932 C17.0976311,12.6834175 17.0976311,13.3165825 16.7071068,13.7071068 C16.3466228,14.0675907 15.7793918,14.0953203 15.3871006,13.7902954 L15.2928932,13.7071068 L13,11.414 L13,21 C13,21.5522847 12.5522847,22 12,22 C11.4477153,22 11,21.5522847 11,21 L11,11.416 L8.70710678,13.7071068 C8.34662282,14.0675907 7.77939176,14.0953203 7.38710056,13.7902954 L7.29289322,13.7071068 C6.93240926,13.3466228 6.90467972,12.7793918 7.20970461,12.3871006 L7.29289322,12.2928932 L11.2928932,8.29289322 L11.336853,8.2514958 L11.336853,8.2514958 L11.4046934,8.19633458 L11.4046934,8.19633458 L11.5159379,8.12467117 L11.5769009,8.09365378 L11.5769009,8.09365378 L11.6583496,8.05988586 L11.6583496,8.05988586 L11.734007,8.03584514 L11.734007,8.03584514 L11.8825258,8.00683422 L11.8825258,8.00683422 L11.9667532,8.00054939 L11.9667532,8.00054939 L12.082,8.003 Z"/>
</svg>