<?xml version="1.0" standalone="no"?>
<!DOCTYPE svg PUBLIC "-//W3C//DTD SVG 20010904//EN"
 "http://www.w3.org/TR/2001/REC-SVG-20010904/DTD/svg10.dtd">
<svg version="1.0" xmlns="http://www.w3.org/2000/svg"
 width="512.000000pt" height="512.000000pt" viewBox="0 0 512.000000 512.000000"
 preserveAspectRatio="xMidYMid meet">
<metadata>
Created by potrace 1.11, written by Peter Selinger 2001-2013
</metadata>
<g transform="translate(0.000000,512.000000) scale(0.100000,-0.100000)"
fill="#000000" stroke="none">
<path d="M1776 5071 c-4 -5 3 -7 14 -4 23 6 26 13 6 13 -8 0 -17 -4 -20 -9z"/>
<path d="M1994 5072 c3 -6 2 -13 -4 -17 -6 -4 -7 -12 -3 -18 4 -7 -1 -6 -10 2
-23 18 -132 18 -154 -1 -12 -9 -15 -9 -9 0 5 8 -1 12 -18 12 -17 0 -26 -6 -26
-16 0 -8 -4 -13 -8 -10 -5 3 -9 -1 -9 -9 0 -8 4 -12 9 -9 4 3 8 -2 8 -11 0
-10 -5 -13 -12 -9 -7 5 -8 3 -2 -7 14 -24 16 -51 2 -43 -9 5 -9 2 1 -9 11 -14
11 -17 0 -17 -11 0 -11 -3 1 -11 12 -9 13 -12 1 -16 -11 -5 -11 -7 0 -14 12
-8 12 -10 0 -18 -11 -7 -11 -10 0 -15 12 -5 12 -7 0 -12 -11 -5 -11 -8 0 -15
12 -8 12 -10 0 -18 -11 -7 -11 -9 0 -14 12 -5 12 -7 0 -15 -11 -8 -11 -10 0
-15 12 -5 12 -7 0 -15 -11 -8 -11 -10 0 -15 12 -5 12 -7 0 -15 -11 -8 -11 -10
0 -15 12 -4 11 -7 -1 -16 -10 -7 -11 -11 -2 -11 6 0 12 -9 12 -21 0 -12 -4
-17 -11 -14 -6 4 -5 -2 2 -13 11 -17 10 -24 -2 -38 -9 -11 -9 -15 -1 -10 7 4
12 1 12 -9 0 -9 -5 -13 -11 -10 -6 4 -5 -2 2 -13 11 -17 10 -24 -2 -38 -9 -11
-9 -15 -1 -10 7 4 12 1 12 -9 0 -10 -5 -13 -12 -9 -8 5 -8 1 1 -10 12 -14 13
-21 2 -38 -7 -11 -8 -17 -2 -13 6 3 11 -1 11 -10 0 -9 -5 -13 -11 -10 -6 4 -5
-2 2 -13 10 -16 10 -23 0 -35 -8 -10 -9 -17 -1 -22 5 -3 10 -11 10 -16 0 -6
-6 -7 -12 -3 -9 5 -9 2 1 -9 11 -14 11 -17 0 -17 -11 0 -11 -2 1 -10 12 -8 13
-11 1 -19 -11 -7 -11 -9 0 -14 12 -5 12 -7 0 -15 -11 -8 -11 -10 0 -15 12 -5
12 -7 0 -15 -11 -8 -11 -11 0 -16 11 -5 11 -7 2 -12 -10 -4 -9 -9 3 -21 13
-13 13 -17 2 -24 -8 -6 1 -9 25 -9 21 0 36 4 33 8 -2 4 4 8 14 8 10 0 16 -4
14 -8 -3 -4 12 -8 33 -8 25 0 33 3 24 9 -9 6 -5 9 14 9 19 0 23 -3 14 -9 -10
-6 -5 -9 16 -9 17 0 38 0 48 0 9 0 23 0 30 0 62 2 177 -7 184 -14 5 -5 3 -6
-4 -2 -7 4 -13 2 -13 -3 0 -15 13 -14 29 2 11 10 13 10 7 0 -5 -10 6 -13 43
-13 34 0 51 -4 51 -12 0 -9 4 -8 10 2 6 10 10 11 10 3 0 -8 15 -13 39 -13 22
0 41 -4 43 -10 2 -5 15 -11 31 -12 15 -1 27 -7 27 -12 0 -6 5 -5 12 2 7 7 17
12 22 12 6 0 4 -5 -4 -10 -12 -8 -8 -10 15 -11 17 -1 34 -1 38 0 5 1 6 -3 2
-9 -3 -6 3 -10 15 -10 14 0 19 -4 14 -12 -5 -8 0 -7 11 2 11 9 16 10 11 3 -5
-9 0 -13 13 -13 12 0 21 -4 21 -10 0 -5 14 -10 30 -10 20 0 40 -9 56 -25 14
-14 32 -25 40 -25 8 0 12 -4 9 -10 -3 -6 1 -7 9 -4 10 4 18 -1 22 -11 5 -13 9
-14 15 -3 7 10 9 10 9 1 0 -7 7 -13 16 -13 9 0 12 -5 8 -12 -5 -7 -2 -9 9 -5
9 3 18 0 21 -9 3 -8 12 -14 21 -14 8 0 15 -4 15 -10 0 -5 7 -10 16 -10 8 0 13
-4 10 -8 -2 -4 4 -9 15 -9 10 -1 26 -9 35 -17 8 -9 21 -16 27 -16 7 0 6 -4 -3
-10 -12 -8 -11 -10 8 -10 14 0 22 -6 22 -17 0 -9 3 -13 6 -10 4 3 19 -7 34
-23 16 -17 33 -30 40 -30 6 0 8 -4 5 -10 -3 -5 0 -10 7 -10 8 0 20 -9 28 -20
8 -11 21 -20 28 -20 8 0 12 -5 10 -12 -3 -7 8 -25 24 -41 15 -17 28 -34 28
-39 0 -5 5 -6 10 -3 9 6 14 -8 11 -28 -1 -5 3 -6 9 -2 5 3 10 -3 10 -14 0 -14
5 -19 15 -15 9 4 15 0 15 -10 0 -9 5 -16 10 -16 6 0 10 -6 10 -12 0 -7 14 -29
30 -48 16 -19 30 -45 30 -57 0 -13 5 -23 10 -23 6 0 10 -7 10 -16 0 -8 5 -12
10 -9 6 4 10 -7 10 -25 0 -18 4 -29 10 -25 5 3 10 -3 10 -14 0 -12 4 -21 10
-21 5 0 12 -11 16 -25 3 -14 10 -25 15 -25 4 0 6 -9 4 -19 -2 -11 3 -25 11
-31 7 -7 11 -16 8 -22 -3 -5 1 -20 10 -33 10 -15 12 -26 6 -30 -6 -3 -10 -12
-10 -18 0 -7 4 -6 10 3 8 12 10 10 11 -10 1 -14 1 -33 1 -43 -1 -12 2 -16 11
-11 9 6 9 5 0 -7 -10 -12 -10 -18 -1 -27 7 -7 8 -12 3 -12 -4 0 0 -10 11 -22
10 -12 13 -18 7 -14 -8 4 -13 1 -13 -9 0 -9 4 -14 9 -11 5 4 8 -2 6 -11 -2
-10 -4 -18 -5 -18 -1 0 -3 -8 -5 -18 -2 -9 0 -15 4 -13 4 3 8 -45 9 -105 1
-61 4 -115 7 -120 4 -5 2 -9 -2 -9 -5 0 -7 -17 -5 -37 2 -28 1 -34 -7 -23 -8
12 -10 11 -8 -7 0 -12 5 -19 10 -16 5 3 3 -5 -4 -18 -7 -13 -12 -25 -11 -26 1
-2 2 -6 1 -10 -1 -5 0 -18 1 -30 1 -13 -4 -23 -11 -23 -8 0 -8 -5 2 -17 10
-11 10 -14 2 -9 -9 5 -14 0 -14 -13 -1 -12 -2 -27 -3 -33 -1 -7 -5 -16 -9 -19
-4 -3 -9 -22 -10 -41 -1 -20 -5 -34 -9 -31 -7 4 -12 -27 -11 -64 0 -7 -4 -11
-11 -10 -6 1 -10 -8 -10 -21 1 -18 -1 -20 -13 -10 -8 6 -13 7 -12 2 4 -23 -2
-45 -11 -39 -6 4 -10 3 -9 -2 4 -23 -2 -43 -11 -38 -6 4 -10 3 -9 -2 4 -24 -2
-53 -11 -48 -6 4 -10 -5 -10 -20 0 -19 -6 -29 -21 -32 -16 -4 -17 -8 -7 -14
10 -7 10 -9 1 -9 -7 0 -13 -7 -13 -16 0 -8 -4 -12 -10 -9 -5 3 -10 -3 -10 -14
0 -12 -7 -21 -15 -21 -9 0 -12 -6 -9 -15 4 -9 0 -15 -8 -15 -8 0 -21 -12 -29
-27 -18 -36 -34 -53 -50 -53 -7 0 -10 -3 -6 -6 3 -3 -5 -17 -19 -31 -13 -13
-21 -30 -18 -36 4 -7 4 -9 0 -5 -10 8 -36 -14 -29 -24 2 -5 -5 -8 -16 -8 -12
0 -21 -4 -21 -10 0 -5 -7 -10 -16 -10 -8 0 -13 -3 -11 -7 6 -10 -19 -34 -27
-26 -3 4 -6 1 -6 -6 0 -7 -5 -9 -10 -6 -6 4 -9 1 -8 -6 2 -7 -7 -18 -19 -24
-13 -5 -23 -15 -23 -22 0 -6 -13 -17 -30 -25 -17 -7 -30 -16 -30 -20 0 -5 -9
-8 -21 -8 -11 0 -17 -4 -14 -10 3 -5 -1 -10 -10 -10 -9 0 -13 -5 -10 -10 4 -6
3 -10 -2 -9 -22 4 -43 -2 -38 -11 4 -6 -5 -10 -19 -10 -14 0 -26 -5 -26 -11 0
-5 -4 -7 -10 -4 -5 3 -10 1 -10 -5 0 -6 -4 -8 -10 -5 -5 3 -10 1 -10 -4 0 -6
-10 -11 -22 -11 -19 0 -20 -2 -8 -10 12 -7 8 -11 -17 -16 -18 -4 -33 -10 -33
-15 0 -5 -12 -9 -26 -9 -17 0 -23 -4 -18 -13 6 -9 4 -9 -7 0 -7 7 -18 13 -23
13 -6 0 -4 -5 4 -10 13 -8 12 -10 -2 -10 -10 0 -18 -4 -18 -10 0 -5 -5 -10
-11 -10 -5 0 -7 6 -4 13 4 6 1 5 -7 -4 -7 -9 -19 -14 -27 -11 -10 3 -11 0 -5
-9 6 -11 3 -10 -11 1 -11 9 -16 10 -11 3 5 -9 1 -13 -12 -13 -24 0 -73 -25
-67 -34 3 -3 -1 -2 -7 4 -16 13 -48 13 -48 -1 0 -5 -4 -7 -10 -4 -5 3 -10 1
-10 -6 0 -7 -3 -9 -7 -6 -3 4 -13 1 -21 -6 -13 -9 -14 -9 -8 1 4 6 2 12 -3 12
-6 0 -11 -4 -11 -10 0 -5 -5 -10 -11 -10 -5 0 -7 5 -4 10 3 6 2 10 -4 10 -5 0
-11 -5 -13 -10 -2 -6 -16 -12 -31 -13 -15 -1 -31 -8 -36 -15 -5 -8 -31 -13
-72 -13 -35 -1 -69 -5 -74 -9 -12 -10 -34 -8 -52 3 -8 5 -13 4 -13 -2 0 -6 -5
-11 -11 -11 -5 0 -8 4 -5 9 7 10 -20 9 -30 -2 -10 -10 -26 -9 -20 1 3 5 -1 9
-9 9 -8 0 -12 -4 -9 -9 3 -4 -9 -8 -26 -8 -22 0 -29 4 -24 13 5 9 4 9 -6 0
-10 -9 -17 -10 -27 -1 -10 8 -12 7 -8 -4 5 -12 0 -14 -19 -11 -14 3 -24 9 -21
12 2 4 -2 8 -10 8 -8 0 -12 -4 -9 -9 3 -4 -2 -8 -11 -8 -14 0 -16 -16 -15
-122 1 -68 1 -249 1 -403 0 -417 1 -439 9 -424 10 16 40 21 34 6 -3 -9 20 -12
76 -12 44 -1 80 2 80 5 0 3 -31 6 -70 5 -38 -1 -67 1 -64 4 10 11 152 7 148
-4 -2 -5 12 -11 31 -12 19 -1 35 2 35 7 0 4 -11 7 -25 5 -14 -1 -23 0 -20 4 4
3 33 6 66 6 32 1 54 -2 48 -6 -7 -4 -22 -6 -35 -4 -13 1 -24 -1 -24 -5 0 -5
38 -7 85 -7 68 2 85 5 85 17 1 11 4 10 17 -5 12 -15 14 -16 10 -3 -5 13 0 16
26 16 90 -3 198 3 193 10 -2 4 4 8 14 8 10 0 16 -4 14 -8 -5 -8 12 -5 63 11
22 6 35 6 39 0 3 -6 12 -2 19 8 11 14 16 16 26 6 7 -7 18 -13 23 -13 6 0 4 5
-4 10 -12 8 -8 10 15 10 69 0 104 4 98 13 -3 5 8 7 23 5 21 -2 28 1 26 11 -3
12 0 12 11 2 11 -9 16 -9 19 0 2 6 20 11 41 11 20 0 35 3 33 6 -2 4 17 8 42 9
25 2 49 8 53 14 4 7 14 9 23 6 8 -3 23 2 32 11 10 9 19 16 21 15 12 -10 43 0
43 13 0 10 6 14 14 11 7 -3 26 1 41 9 15 8 38 14 52 14 13 0 21 4 18 10 -3 6
3 10 14 10 11 0 23 4 26 10 3 5 17 10 30 10 13 0 26 6 28 13 4 9 6 9 6 -1 1
-8 8 -6 23 8 12 11 32 20 45 20 14 0 21 4 18 10 -4 6 7 10 25 10 18 0 29 4 25
10 -4 6 5 10 21 10 24 0 25 2 13 18 -7 9 -10 14 -5 10 5 -4 28 4 53 17 24 14
50 25 58 25 8 0 15 5 15 11 0 5 4 8 9 4 5 -3 21 6 35 20 14 14 26 21 26 14 0
-7 9 -2 19 10 11 12 22 22 25 22 20 -3 26 1 26 14 0 8 9 15 20 15 10 0 24 9
30 20 6 11 16 20 23 20 7 0 19 9 27 20 10 14 16 16 22 7 5 -8 8 -3 8 13 0 16
3 21 8 13 6 -9 12 -7 22 7 8 11 23 20 33 20 9 0 20 7 23 15 4 8 10 12 16 9 5
-3 8 0 6 8 -2 7 1 14 5 15 4 1 21 16 37 33 15 16 33 30 40 30 6 0 8 5 5 11 -4
6 0 9 11 7 12 -2 18 2 16 10 -1 8 2 11 7 8 5 -4 16 3 24 14 7 11 17 17 21 12
4 -4 6 0 4 8 -2 9 3 14 11 12 12 -3 12 -1 0 14 -8 10 -9 16 -4 13 12 -6 85 67
77 76 -4 3 1 3 11 -1 12 -4 17 -1 17 11 0 9 5 13 10 10 6 -3 10 1 10 9 0 9 5
16 10 16 6 0 10 5 10 11 0 6 14 24 31 40 18 17 25 29 18 30 -8 0 -4 4 9 9 12
5 22 14 22 20 0 15 26 40 41 40 7 0 9 3 6 7 -4 3 1 12 11 20 9 8 11 12 5 8
-17 -8 -16 3 1 20 7 8 16 11 20 8 6 -6 10 21 7 40 -1 5 3 6 9 2 5 -3 10 1 10
9 0 9 5 16 10 16 6 0 10 10 10 23 0 18 2 19 10 7 8 -12 10 -9 10 13 0 19 4 26
12 21 7 -5 9 -2 5 9 -3 9 2 26 12 39 10 13 16 30 13 38 -3 9 2 7 13 -5 9 -11
14 -15 11 -8 -4 6 1 18 9 26 11 12 12 17 2 20 -9 4 -9 6 1 6 6 1 12 8 12 17 0
8 5 12 10 9 6 -4 10 7 10 24 0 17 5 31 10 31 6 0 10 9 10 19 0 11 5 23 10 26
6 3 10 15 10 25 0 10 5 20 11 22 6 2 12 18 12 35 1 17 5 29 9 27 5 -3 8 4 8
16 0 13 4 19 11 14 8 -4 8 0 0 15 -7 12 -8 21 -2 21 5 0 12 -6 14 -12 3 -7 6
-3 6 10 1 13 5 21 9 18 5 -3 9 1 9 9 0 8 -5 11 -10 8 -12 -7 -1 14 22 41 9 11
10 16 4 12 -8 -4 -13 -1 -13 8 0 9 4 16 8 16 8 0 12 14 13 53 0 9 5 15 11 11
6 -4 5 3 -2 16 -8 15 -8 20 -1 16 7 -4 12 1 12 13 2 30 3 34 13 50 6 9 5 12
-1 8 -5 -3 -10 0 -10 8 0 8 4 12 9 9 4 -3 8 11 8 31 0 26 4 34 13 29 10 -6 10
-4 0 7 -7 7 -13 17 -13 22 0 4 6 5 13 1 7 -5 6 0 -3 11 -9 11 -10 16 -2 11 6
-4 12 -2 12 3 0 6 -6 11 -12 11 -9 0 -9 3 -3 8 6 4 11 15 12 25 0 9 1 32 2 50
1 24 4 28 11 17 5 -8 10 -10 10 -5 0 6 -4 17 -10 25 -5 8 -5 19 -1 25 10 12
11 46 1 40 -3 -2 -6 5 -6 15 0 10 4 16 8 14 4 -3 8 2 8 11 0 10 -5 14 -12 9
-10 -6 -10 -4 0 7 15 16 16 33 1 23 -8 -5 -8 -1 0 14 14 26 14 35 0 26 -8 -5
-8 -1 0 14 13 24 14 35 3 28 -4 -2 -8 6 -8 19 0 13 4 21 8 19 4 -3 8 2 8 11 0
9 -4 14 -9 10 -6 -3 -8 4 -5 17 10 43 12 78 4 73 -5 -3 -7 10 -6 27 1 18 -5
42 -14 52 -8 11 -9 16 -2 12 8 -5 12 1 12 18 0 14 -6 26 -12 26 -9 0 -8 4 2
10 8 5 10 10 4 10 -6 0 -12 24 -13 57 -1 32 -7 63 -12 70 -6 6 -11 25 -11 42
-1 19 -5 28 -12 24 -6 -4 -4 2 4 12 9 11 10 16 3 11 -9 -5 -13 0 -14 16 -1 23
-4 37 -9 51 -5 12 -7 26 -9 43 -1 9 -6 12 -13 8 -10 -6 -10 -5 0 8 10 12 10
18 -2 27 -8 7 -13 21 -11 31 3 13 -1 17 -11 13 -10 -4 -14 2 -14 21 0 14 -4
26 -10 26 -5 0 -10 14 -10 30 0 17 -4 30 -10 30 -5 0 -10 12 -10 26 0 17 -4
23 -12 18 -8 -5 -9 -2 -5 10 4 10 1 19 -8 22 -9 4 -15 19 -15 36 0 17 -4 27
-10 23 -6 -4 -10 5 -10 20 0 15 -4 24 -10 20 -6 -4 -10 5 -10 19 0 14 -5 26
-11 26 -5 0 -7 -5 -3 -12 4 -7 3 -8 -4 -4 -7 4 -12 15 -12 25 0 9 -9 27 -20
39 -11 12 -20 31 -20 42 0 12 -4 18 -10 15 -5 -3 -10 0 -10 8 0 8 -7 20 -15
27 -9 7 -13 15 -11 17 3 3 -4 14 -15 26 -10 11 -19 27 -19 34 0 7 -4 13 -10
13 -5 0 -10 7 -10 15 0 8 -5 15 -11 15 -6 0 -17 6 -25 14 -11 11 -11 16 -1 19
6 3 1 6 -13 7 -14 1 -19 4 -13 7 8 3 -2 19 -27 43 -25 24 -35 40 -27 43 6 3 2
6 -10 6 -13 1 -23 6 -23 12 0 5 6 7 13 4 6 -3 2 2 -10 11 -13 9 -23 23 -23 31
0 8 -4 12 -9 8 -10 -5 -26 9 -50 43 -8 12 -18 19 -23 16 -4 -3 -8 2 -8 11 0 9
-4 13 -10 10 -5 -3 -10 3 -10 14 0 13 -7 21 -17 21 -9 0 -14 3 -10 6 6 7 -3
17 -37 44 -16 12 -18 12 -11 1 5 -10 4 -12 -3 -7 -7 4 -12 14 -12 22 0 8 -4
12 -10 9 -5 -3 -10 2 -11 12 0 10 -3 13 -6 6 -3 -10 -7 -10 -18 0 -7 7 -11 15
-8 20 2 4 -3 7 -11 7 -9 0 -16 5 -16 10 0 6 -6 10 -14 10 -8 0 -18 5 -22 12
-4 7 -3 8 4 4 7 -4 12 -2 12 3 0 6 -8 11 -19 11 -10 0 -32 14 -49 30 -18 17
-37 30 -42 30 -6 0 -13 7 -16 15 -4 8 -10 13 -14 10 -5 -3 -16 5 -24 17 -9 12
-16 19 -16 15 0 -3 -18 3 -40 14 -22 12 -40 23 -40 26 0 2 5 1 10 -2 6 -3 10
-1 10 4 0 6 -9 11 -20 11 -11 0 -20 5 -20 10 0 6 -10 10 -22 10 -19 0 -20 2
-8 10 12 8 9 10 -13 10 -16 0 -26 4 -22 10 4 6 -5 10 -20 10 -15 0 -24 4 -20
10 4 6 -7 10 -27 10 -25 0 -29 3 -18 10 12 8 10 10 -8 10 -13 0 -21 4 -18 8 2
4 -5 9 -16 9 -12 1 -26 7 -32 14 -8 9 -7 10 3 4 9 -5 12 -4 7 3 -4 7 -20 12
-35 12 -15 0 -36 9 -46 20 -10 11 -29 20 -42 20 -12 0 -23 3 -23 8 0 11 -51
32 -78 32 -13 0 -21 3 -19 8 3 4 -9 8 -25 9 -17 1 -36 7 -43 13 -6 5 -14 8
-17 5 -3 -3 -11 1 -18 10 -15 18 -34 20 -24 3 6 -10 4 -10 -7 0 -7 6 -21 12
-31 12 -10 0 -18 5 -18 11 0 5 4 8 9 4 5 -3 12 -1 15 4 3 4 -2 8 -12 8 -9 0
-35 1 -57 2 -32 2 -36 4 -20 11 17 7 16 9 -10 10 -16 2 -36 2 -42 1 -7 -1 -13
3 -13 9 0 5 -17 10 -38 10 -21 0 -44 6 -51 13 -11 10 -12 9 -6 -3 8 -13 6 -13
-8 -1 -9 7 -33 13 -53 13 -26 0 -33 3 -23 9 11 8 10 10 -6 8 -42 -3 -76 1 -71
9 3 5 -1 9 -9 9 -8 0 -12 -4 -9 -9 3 -4 0 -8 -5 -8 -6 0 -11 6 -11 13 0 8 -4
7 -10 -3 -6 -10 -10 -11 -10 -2 0 6 -12 12 -28 12 -15 0 -34 6 -41 13 -11 10
-13 10 -7 0 5 -8 1 -13 -9 -13 -10 0 -14 5 -9 13 6 10 4 10 -7 0 -7 -7 -20
-13 -28 -13 -14 0 -14 1 -1 10 11 7 -3 10 -46 10 -34 0 -66 5 -73 13 -11 10
-13 10 -7 0 5 -8 1 -13 -9 -13 -10 0 -13 5 -9 13 5 8 2 8 -9 -2 -11 -9 -17
-10 -17 -2 0 15 -27 14 -33 -1 -4 -10 -6 -10 -6 0 -1 6 -6 12 -12 12 -5 0 -7
-6 -3 -12 6 -10 4 -10 -7 0 -7 6 -21 12 -32 12 -12 0 -16 -4 -11 -12 6 -10 4
-10 -7 0 -7 6 -22 12 -34 12 -12 0 -26 5 -32 11 -9 9 -11 6 -7 -12 2 -13 2
-18 -2 -11 -3 6 -19 12 -35 12 -21 0 -28 -4 -23 -12 4 -8 2 -8 -7 1 -11 10
-11 15 -1 18 6 3 12 10 12 16 -1 7 -12 -1 -26 -18 -13 -16 -22 -23 -19 -15 4
11 -1 16 -15 16 -11 0 -20 -3 -20 -7 0 -3 -11 -4 -25 -1 -14 2 -22 8 -20 12 3
5 0 12 -6 16 -7 4 -9 3 -5 -4z m2056 -3012 c0 -5 -5 -10 -11 -10 -5 0 -7 5 -4
10 3 6 8 10 11 10 2 0 4 -4 4 -10z m-90 -94 c0 -2 -8 -10 -17 -17 -16 -13 -17
-12 -4 4 13 16 21 21 21 13z m-152 -171 c-3 -3 -9 2 -12 12 -6 14 -5 15 5 6 7
-7 10 -15 7 -18z m-558 -389 c0 -2 -7 -7 -16 -10 -8 -3 -12 -2 -9 4 6 10 25
14 25 6z m-980 -306 c0 -5 -4 -10 -10 -10 -5 0 -10 5 -10 10 0 6 5 10 10 10 6
0 10 -4 10 -10z m-57 -970 c-7 -7 -72 -6 -67 1 2 4 19 6 38 5 19 0 32 -3 29
-6z"/>
<path d="M2146 4082 c-3 -5 1 -9 9 -9 8 0 12 4 9 9 -3 4 -7 8 -9 8 -2 0 -6 -4
-9 -8z"/>
<path d="M1783 3600 c-12 -5 -26 -18 -32 -29 -7 -13 -11 -172 -11 -475 l0
-456 -195 0 c-182 0 -196 -1 -215 -20 -33 -33 -24 -61 44 -151 329 -431 716
-926 737 -941 49 -37 66 -22 236 200 289 380 563 737 598 781 40 50 44 82 15
111 -19 19 -33 20 -215 20 l-195 0 0 459 c0 437 -1 460 -19 482 l-19 24 -354
2 c-194 1 -363 -2 -375 -7z"/>
<path d="M2275 120 c-3 -5 -1 -10 4 -10 6 0 11 5 11 10 0 6 -2 10 -4 10 -3 0
-8 -4 -11 -10z"/>
</g>
</svg>
