<?xml version="1.0" standalone="no"?>
<!DOCTYPE svg PUBLIC "-//W3C//DTD SVG 20010904//EN"
 "http://www.w3.org/TR/2001/REC-SVG-20010904/DTD/svg10.dtd">
<svg version="1.0" xmlns="http://www.w3.org/2000/svg"
 width="132.000000pt" height="132.000000pt" viewBox="0 0 132.000000 132.000000"
 preserveAspectRatio="xMidYMid meet">
<metadata>
Created by potrace 1.11, written by Peter Selinger 2001-2013
</metadata>
<g transform="translate(0.000000,132.000000) scale(0.100000,-0.100000)"
fill="#000000" stroke="none">
<path d="M566 1249 c-3 -39 -4 -74 -1 -79 3 -4 -6 -11 -19 -14 -24 -6 -24 -6
-22 -140 1 -116 4 -137 20 -155 18 -20 18 -21 -36 -79 -55 -60 -136 -207 -157
-287 -16 -60 -14 -215 4 -266 22 -61 91 -146 151 -186 50 -33 57 -35 167 -40
106 -5 118 -4 150 15 33 21 91 96 132 170 16 30 20 61 23 164 4 110 1 136 -18
195 -29 90 -65 144 -149 227 l-69 69 18 26 c18 24 19 37 12 149 -7 107 -11
124 -29 137 -18 13 -20 22 -15 90 l5 75 -80 0 -80 0 -7 -71z m190 -631 c39
-50 53 -78 71 -147 30 -117 31 -217 0 -261 -37 -57 -74 -72 -152 -64 -74 8
-113 32 -142 87 -13 26 -15 50 -9 132 9 141 50 266 104 311 36 31 70 16 128
-58z"/>
</g>
</svg>
