<?xml version="1.0" standalone="no"?>
<!DOCTYPE svg PUBLIC "-//W3C//DTD SVG 20010904//EN"
 "http://www.w3.org/TR/2001/REC-SVG-20010904/DTD/svg10.dtd">
<svg version="1.0" xmlns="http://www.w3.org/2000/svg"
 width="1024.000000pt" height="1024.000000pt" viewBox="0 0 1024.000000 1024.000000"
 preserveAspectRatio="xMidYMid meet">
<metadata>
Created by potrace 1.14, written by Peter Selinger 2001-2017
</metadata>
<g transform="translate(0.000000,1024.000000) scale(0.100000,-0.100000)"
fill="#000000" stroke="none">
<path d="M5085 8750 c-119 -22 -177 -38 -265 -73 -132 -52 -256 -78 -376 -77
-85 0 -128 4 -159 13 -134 39 -372 26 -705 -38 -69 -13 -136 -26 -150 -29 -14
-2 -59 -12 -100 -21 -41 -9 -86 -19 -100 -21 -113 -22 -407 -127 -462 -166
-14 -10 -29 -18 -32 -18 -18 0 -113 -76 -181 -145 -94 -96 -147 -139 -233
-188 -59 -35 -186 -84 -242 -93 -143 -26 -285 -83 -407 -164 -40 -27 -81 -57
-91 -67 -10 -10 -48 -46 -83 -79 -35 -34 -91 -92 -124 -129 -33 -38 -65 -73
-70 -79 -6 -6 -37 -42 -70 -81 -33 -38 -70 -79 -81 -91 -78 -81 -265 -346
-318 -451 -86 -173 -119 -348 -91 -493 29 -153 23 -305 -17 -450 -25 -93 -61
-169 -156 -335 -93 -161 -155 -293 -166 -355 -3 -14 -7 -34 -9 -45 -6 -27 -25
-158 -32 -220 -12 -111 -1 -346 20 -415 2 -8 6 -26 9 -40 2 -14 12 -54 21 -90
9 -36 19 -72 20 -80 103 -450 131 -540 216 -683 76 -128 223 -249 361 -297 55
-20 217 -54 303 -65 28 -4 61 -9 75 -11 14 -2 43 -6 65 -9 78 -10 217 -31 265
-40 14 -3 34 -7 45 -9 81 -15 211 -59 271 -91 118 -63 172 -121 244 -261 236
-461 534 -718 987 -852 56 -17 169 -62 250 -100 205 -96 293 -125 464 -148 55
-7 260 -8 314 0 22 2 65 8 95 11 92 11 209 43 294 81 135 60 158 67 226 68 66
1 92 -3 203 -28 34 -8 73 -17 87 -20 14 -3 63 -42 110 -86 242 -230 551 -418
864 -525 74 -25 142 -48 153 -50 10 -2 59 -13 109 -24 189 -42 488 -59 644
-37 190 28 283 48 515 112 569 155 943 368 1159 659 42 55 106 174 139 255 51
125 86 341 91 555 l1 60 107 31 c152 44 261 99 328 165 115 114 269 366 325
534 44 129 57 212 60 378 3 127 10 229 20 267 15 57 33 106 60 164 54 116 66
170 70 306 5 192 -21 333 -86 462 -65 128 -95 286 -90 468 10 334 0 411 -74
583 -66 154 -134 242 -255 333 -143 106 -256 248 -315 390 -73 179 -83 196
-174 284 -57 55 -120 104 -181 140 -160 94 -263 206 -370 400 -62 113 -109
178 -171 241 -152 153 -347 236 -574 245 -236 9 -282 13 -350 35 -96 29 -143
52 -267 130 -166 103 -269 131 -538 144 -180 9 -309 56 -502 183 -54 35 -126
75 -160 88 -65 26 -220 67 -296 79 -23 4 -54 9 -70 11 -90 14 -303 11 -397 -6z"/>
</g>
</svg>
