<?xml version="1.0" standalone="no"?>
<!DOCTYPE svg PUBLIC "-//W3C//DTD SVG 20010904//EN"
 "http://www.w3.org/TR/2001/REC-SVG-20010904/DTD/svg10.dtd">
<svg version="1.0" xmlns="http://www.w3.org/2000/svg"
 width="480.000000pt" height="480.000000pt" viewBox="0 0 480.000000 480.000000"
 preserveAspectRatio="xMidYMid meet">
<metadata>
Created by potrace 1.11, written by Peter Selinger 2001-2013
</metadata>
<g transform="translate(0.000000,480.000000) scale(0.100000,-0.100000)"
fill="#000000" stroke="none">
<path d="M2210 3925 c-230 -52 -397 -178 -490 -370 -118 -242 -81 -533 94
-757 59 -74 194 -193 407 -358 478 -370 627 -547 645 -763 19 -219 -128 -421
-361 -498 -97 -33 -253 -33 -340 -1 -80 29 -182 100 -250 174 -47 50 -187 249
-197 279 -2 5 -58 -23 -126 -63 -95 -57 -121 -77 -118 -91 9 -36 112 -191 191
-285 174 -209 382 -315 645 -329 263 -14 482 76 669 272 164 174 238 409 198
630 -40 219 -162 412 -386 611 -53 47 -213 174 -356 282 -338 255 -406 325
-455 467 -29 83 -30 200 -1 275 66 175 273 273 483 229 127 -27 231 -101 364
-261 l72 -87 121 91 121 90 -41 52 c-178 225 -332 343 -521 396 -97 28 -279
35 -368 15z"/>
<path d="M3637 1323 c-13 -21 -36 -57 -51 -80 l-26 -43 95 0 95 0 0 -380 0
-380 85 0 85 0 0 460 0 460 -130 0 -130 0 -23 -37z"/>
</g>
</svg>
