<?xml version="1.0" standalone="no"?>
<!DOCTYPE svg PUBLIC "-//W3C//DTD SVG 20010904//EN"
 "http://www.w3.org/TR/2001/REC-SVG-20010904/DTD/svg10.dtd">
<svg version="1.0" xmlns="http://www.w3.org/2000/svg"
 width="512.000000pt" height="512.000000pt" viewBox="0 0 512.000000 512.000000"
 preserveAspectRatio="xMidYMid meet">
<metadata>
Created by potrace 1.11, written by Peter Selinger 2001-2013
</metadata>
<g transform="translate(0.000000,512.000000) scale(0.100000,-0.100000)"
fill="#000000" stroke="none">
<path d="M426 2940 c-72 -23 -108 -56 -148 -138 l-31 -63 7 -152 c8 -194 15
-220 77 -278 121 -115 360 -142 517 -58 79 42 102 66 102 105 0 19 13 55 29
82 41 69 54 141 49 260 l-4 102 -49 51 c-28 27 -62 53 -78 56 -15 3 -30 10
-33 14 -3 5 -15 9 -28 9 -12 0 -27 5 -34 12 -7 7 -65 12 -164 14 -129 3 -162
1 -212 -16z m212 -177 c-10 -2 -26 -2 -35 0 -10 3 -2 5 17 5 19 0 27 -2 18 -5z
m-186 -95 c-7 -7 -12 -8 -12 -2 0 14 12 26 19 19 2 -3 -1 -11 -7 -17z m-15
-50 c-3 -7 -5 -2 -5 12 0 14 2 19 5 13 2 -7 2 -19 0 -25z"/>
<path d="M1662 2879 c-57 -11 -117 -60 -147 -120 -20 -38 -25 -64 -25 -118 0
-38 -4 -73 -10 -76 -13 -8 -13 -52 1 -116 13 -61 58 -116 127 -154 104 -59 26
-55 1364 -56 1729 0 1692 0 1753 16 29 7 63 19 76 26 13 7 31 15 39 19 8 4 29
28 47 54 17 27 43 61 58 76 26 28 27 32 23 112 -2 46 -9 92 -15 103 -5 11 -23
47 -39 79 -33 67 -105 132 -157 141 -121 21 -390 25 -1657 24 -767 -1 -1414
-5 -1438 -10z"/>
</g>
</svg>
