<svg version="1" xmlns="http://www.w3.org/2000/svg" width="933.333" height="933.333" viewBox="0 0 700.000000 700.000000"><path d="M301.8 108.5c-.1.1-4.7.6-10 .9-5.3.4-10.5.9-11.6 1.1-1 .2-4.3.6-7.3 1-25.1 3.1-62.4 14-77.7 22.6-20.3 11.5-31.9 25-34.1 39.6-3.2 22.5 12 44.2 34.3 48.7 12.7 2.7 26.4.2 36-6.3 7.2-5 12.4-13.7 22.6-37.4 9.6-22.5 13.7-29.2 22.6-38 9.2-9.1 25.4-17.3 38-19.3 32.1-5.1 66.8 10.3 84.1 37.4 5.5 8.5 12 24.7 13.8 34.3.3 1.3.9 4.6 1.5 7.4 1.7 8.8 2 10.9 2.8 18.5.9 9.5.9 45.9 0 52.5-1.9 13.7-3.7 20.4-8 29-7.6 15.2-21.8 27.3-45.3 38.6-11.1 5.4-38.6 14.5-62.5 20.8-53.3 14.1-68.8 18.8-84.1 25.7-30.4 13.8-53.3 35.7-63.8 60.9-6.5 15.5-8.4 25.1-8.5 43.5-.1 18.1.5 24.3 3.5 35 10.1 36.5 41.8 63.8 85.4 73.4 6 1.4 13.7 2.8 17 3.2 3.3.4 7.4.8 9 1 4.4.5 32.4.5 37-.1 9.7-1 14-1.6 15.9-2 1.2-.3 3.2-.7 4.6-.9 10.7-1.8 29.2-8.1 40.5-13.8 14.1-7.1 35.9-23.5 60-45.1 1.8-1.7 2.1-1.7 3-.2 24.7 41.1 44.9 55.9 84.5 62 4 .6 29.5.7 32.5.1 1.1-.2 4.1-.6 6.6-1 7.8-1.1 9.4-1.5 17.3-4.1 18.1-5.9 32.3-16.4 42-30.9 3.5-5.3 10.6-19.7 10.6-21.5 0-1.5-9-6.5-9.9-5.5-.4.5-2.5 3.1-4.6 5.9-13.6 17.6-23.1 23-41.3 23.8-22.3 1-37.6-8-45.5-26.9-3.7-8.9-5.1-14-6.2-24.4-.4-3.6-.9-7.6-1.1-9-1-8.2-1.6-63-1.9-170-.1-66.8-.5-123.3-.9-125.5-.3-2.2-1.1-7.3-1.7-11.3-5.8-39.5-40.2-67.3-102.9-83.3-20.3-5.2-25.4-6.1-51-9.4-4.8-.6-44.6-1.5-45.2-1zm116.9 279c-.2 33.5-.7 62.6-1 64.5-.3 1.9-.8 6.2-1.2 9.5-.3 3.3-.8 7.1-1 8.5-.2 1.4-.6 4.3-1 6.5-.8 5.7-5 22.9-7.3 30-12.5 38.6-40.4 66.2-75.4 74.5-11.4 2.7-29.4 2.3-38.8-.9-18.3-6.3-32.4-19-41.9-37.8-6.7-13.4-9.3-25.2-9.5-43.8-.3-22.2 5.6-44.3 16.7-63 7.6-12.6 22.3-28.6 35.6-38.5 5.4-4.1 26.2-17 34.6-21.6 46.9-25.4 64.8-36.6 84-52.2l6-4.9.3 4.1c.2 2.2.2 31.5-.1 65.1z"/></svg>